<svg width="318.169" height="117.929" viewBox="0 0 318.169 117.929" xmlns="http://www.w3.org/2000/svg"><g id="svgGroup" stroke-linecap="round" fill-rule="evenodd" font-size="9pt" stroke="#000" stroke-width="0.50mm" fill="none" style="stroke:#000;stroke-width:0.50mm;fill:none"><path d="M 84.158 109.251 A 1.226 1.226 0 0 0 84.14 109.214 Q 83.625 108.218 81.758 109.201 Q 78.058 111.301 74.308 110.901 A 20.284 20.284 0 0 1 71.126 110.296 A 24.596 24.596 0 0 1 66.708 108.601 Q 62.858 106.701 58.908 103.751 Q 54.958 100.801 50.758 97.801 A 36.302 36.302 0 0 0 52.597 96.226 A 38.869 38.869 0 0 0 60.008 86.901 Q 63.758 80.401 65.908 72.701 Q 68.058 65.001 68.608 56.601 A 90.642 90.642 0 0 0 68.803 50.677 A 86.24 86.24 0 0 0 68.158 40.101 Q 67.158 32.001 64.558 24.701 A 56.676 56.676 0 0 0 62.744 20.209 A 46.438 46.438 0 0 0 57.908 11.901 A 36.115 36.115 0 0 0 57.12 10.869 A 31.131 31.131 0 0 0 48.358 3.201 A 22.841 22.841 0 0 0 43.45 1.07 A 26.163 26.163 0 0 0 35.858 0.001 Q 31.058 0.001 27.008 2.151 A 12.403 12.403 0 0 0 22.886 5.709 A 16.683 16.683 0 0 0 20.858 9.301 A 16.122 16.122 0 0 0 15.388 11.983 A 21.128 21.128 0 0 0 11.658 15.601 A 38.227 38.227 0 0 0 8.19 20.651 A 49.025 49.025 0 0 0 4.958 27.451 A 63.236 63.236 0 0 0 3.004 33.345 A 77.504 77.504 0 0 0 1.008 42.851 A 93.675 93.675 0 0 0 0 56.577 A 95.322 95.322 0 0 0 0.058 59.901 Q 0.358 68.501 2.308 76.551 A 57.457 57.457 0 0 0 3.707 81.406 A 47.131 47.131 0 0 0 8.058 90.851 A 36.678 36.678 0 0 0 8.818 92.048 A 31.424 31.424 0 0 0 17.508 100.901 A 21.522 21.522 0 0 0 24.012 103.838 A 26.819 26.819 0 0 0 30.958 104.701 Q 33.558 104.701 36.058 104.301 Q 38.558 103.901 40.858 103.201 Q 45.658 107.001 50.658 110.751 Q 55.658 114.501 60.958 116.501 A 21.716 21.716 0 0 0 68.683 117.929 A 22.43 22.43 0 0 0 71.858 117.701 Q 77.458 116.901 83.358 111.501 A 5.455 5.455 0 0 0 83.427 111.436 Q 84.645 110.273 84.158 109.251 Z M 28.958 9.301 L 28.458 19.901 A 8.346 8.346 0 0 0 27.113 19.675 Q 25.857 19.573 24.708 19.901 A 8.902 8.902 0 0 0 22.296 21.016 A 10.986 10.986 0 0 0 21.358 21.701 A 18.146 18.146 0 0 0 22.192 24.576 Q 22.775 26.074 23.593 27.208 A 8.66 8.66 0 0 0 25.008 28.751 Q 27.6 30.952 30.384 30.952 A 7.06 7.06 0 0 0 30.508 30.951 Q 33.358 30.901 35.758 28.651 Q 38.158 26.401 38.558 22.301 A 2.064 2.064 0 0 1 37.855 22.559 A 2.803 2.803 0 0 1 37.358 22.601 A 2.79 2.79 0 0 1 35.335 21.777 A 3.38 3.38 0 0 1 35.308 21.751 A 2.871 2.871 0 0 1 34.463 19.804 A 3.82 3.82 0 0 1 34.458 19.601 A 2.79 2.79 0 0 1 35.282 17.577 A 3.38 3.38 0 0 1 35.308 17.551 A 2.79 2.79 0 0 1 37.321 16.701 A 3.364 3.364 0 0 1 37.358 16.701 A 3.477 3.477 0 0 1 38.244 16.807 A 2.395 2.395 0 0 1 39.508 17.601 Q 40.258 18.501 40.358 19.701 A 18.035 18.035 0 0 1 40.417 20.967 Q 40.434 22.513 40.163 23.877 A 11.04 11.04 0 0 1 39.458 26.151 A 13.567 13.567 0 0 1 38.095 28.591 A 10.566 10.566 0 0 1 36.308 30.551 Q 34.358 32.201 31.908 32.651 A 9.306 9.306 0 0 1 30.224 32.807 A 9.099 9.099 0 0 1 27.108 32.251 A 9.61 9.61 0 0 1 24.441 30.748 A 12.996 12.996 0 0 1 22.758 29.151 A 11.574 11.574 0 0 1 20.944 26.351 Q 20.28 24.935 19.858 23.201 A 23.129 23.129 0 0 0 17.591 26.209 Q 16.588 27.775 15.667 29.669 A 44.003 44.003 0 0 0 14.958 31.201 Q 12.758 36.201 11.358 42.401 Q 9.958 48.601 9.408 55.501 A 99.883 99.883 0 0 0 9.09 63.44 A 96.518 96.518 0 0 0 9.258 69.151 A 76.616 76.616 0 0 0 10.752 80.455 A 69.598 69.598 0 0 0 11.108 82.051 A 44.741 44.741 0 0 0 13.068 88.344 A 35.514 35.514 0 0 0 15.258 92.901 A 7.224 7.224 0 0 1 16.948 90.329 Q 17.705 89.569 18.732 88.912 A 13.093 13.093 0 0 1 18.908 88.801 Q 21.658 87.101 26.158 87.001 Q 31.458 87.001 36.358 89.151 A 59.287 59.287 0 0 1 45.37 94.105 A 65.488 65.488 0 0 1 45.958 94.501 A 37.423 37.423 0 0 0 49.563 88.837 A 49.584 49.584 0 0 0 51.908 83.601 A 82.13 82.13 0 0 0 55.229 72.607 A 93.384 93.384 0 0 0 55.808 69.901 Q 57.258 62.601 57.658 54.801 A 115.175 115.175 0 0 0 57.81 48.901 A 108.832 108.832 0 0 0 57.408 39.501 A 86.981 86.981 0 0 0 55.814 28.729 A 76.151 76.151 0 0 0 55.008 25.351 Q 53.258 18.701 50.408 13.701 A 27.751 27.751 0 0 0 47.163 9.103 A 21.969 21.969 0 0 0 43.558 5.801 A 14.554 14.554 0 0 0 34.797 2.997 A 17.281 17.281 0 0 0 34.458 3.001 A 15.394 15.394 0 0 0 28.204 4.274 A 14.987 14.987 0 0 0 27.608 4.551 A 11.19 11.19 0 0 0 24.807 6.473 A 9.573 9.573 0 0 0 22.958 8.901 A 11.692 11.692 0 0 1 24.425 8.772 Q 26.45 8.718 28.887 9.284 A 24.615 24.615 0 0 1 28.958 9.301 Z M 124.358 95.101 L 124.058 89.101 Q 123.558 92.001 122.808 94.801 A 21.463 21.463 0 0 1 121.69 97.99 A 17.801 17.801 0 0 1 120.758 99.801 A 12.526 12.526 0 0 1 119.02 102.114 A 10.681 10.681 0 0 1 117.608 103.351 A 6.926 6.926 0 0 1 114.663 104.569 A 9.39 9.39 0 0 1 113.058 104.701 Q 109.857 104.701 107.437 104.062 A 14.375 14.375 0 0 1 106.558 103.801 Q 103.858 102.901 102.158 100.801 A 11.023 11.023 0 0 1 100.722 98.45 Q 100.213 97.34 99.85 96.012 A 20.132 20.132 0 0 1 99.658 95.251 Q 99.053 92.643 98.906 89.093 A 57.638 57.638 0 0 1 98.858 86.701 Q 98.758 80.601 98.908 74.501 Q 99.058 68.401 98.958 62.301 A 3.839 3.839 0 0 1 99.061 61.384 A 2.4 2.4 0 0 1 100.008 59.951 Q 101.028 59.222 102.568 59.013 A 8.362 8.362 0 0 1 102.658 59.001 A 13.097 13.097 0 0 1 103.86 58.909 Q 104.65 58.883 105.522 58.94 A 21.211 21.211 0 0 1 106.258 59.001 Q 108.258 59.201 110.158 59.401 Q 109.958 66.601 109.958 73.551 L 109.958 87.701 A 58.597 58.597 0 0 0 110.056 91.202 Q 110.26 94.601 110.891 96.912 A 15.935 15.935 0 0 0 110.958 97.151 A 6.066 6.066 0 0 0 111.622 98.686 Q 112.759 100.504 115.074 100.504 A 6.078 6.078 0 0 0 115.258 100.501 A 4.366 4.366 0 0 0 118.453 98.936 A 7.394 7.394 0 0 0 119.408 97.551 A 24.384 24.384 0 0 0 120.886 94.24 A 33.048 33.048 0 0 0 121.908 90.851 Q 122.858 87.001 123.308 83.201 Q 123.653 80.291 123.909 78.379 A 128.016 128.016 0 0 1 124.058 77.301 Q 124.058 73.001 124.158 69.101 Q 124.258 65.201 124.158 62.301 A 3.839 3.839 0 0 1 124.261 61.384 A 2.4 2.4 0 0 1 125.208 59.951 Q 126.228 59.222 127.768 59.013 A 8.362 8.362 0 0 1 127.858 59.001 A 13.13 13.13 0 0 1 129.107 58.907 Q 130.189 58.876 131.408 59.001 Q 133.358 59.201 135.258 59.401 Q 135.058 67.301 135.008 75.251 A 843.592 843.592 0 0 0 134.991 80.556 A 851.615 851.615 0 0 0 135.058 91.201 L 135.058 94.401 Q 135.058 96.001 135.158 97.301 Q 135.229 98.221 135.425 98.891 A 4.258 4.258 0 0 0 135.608 99.401 Q 135.953 100.19 136.736 100.201 A 1.582 1.582 0 0 0 136.758 100.201 Q 137.963 100.201 138.974 98.975 A 6.579 6.579 0 0 0 139.458 98.301 A 15.657 15.657 0 0 0 140.442 96.465 Q 140.878 95.515 141.264 94.399 A 29.535 29.535 0 0 0 141.558 93.501 A 55.306 55.306 0 0 0 142.585 89.7 A 65.894 65.894 0 0 0 143.108 87.251 Q 143.758 83.901 144.258 80.901 A 1.72 1.72 0 0 1 144.354 80.577 Q 144.433 80.387 144.555 80.25 A 0.966 0.966 0 0 1 144.658 80.151 A 0.865 0.865 0 0 1 145.228 79.942 A 1.052 1.052 0 0 1 145.358 79.951 A 1.242 1.242 0 0 1 145.69 80.037 A 0.993 0.993 0 0 1 146.008 80.251 A 0.596 0.596 0 0 1 146.171 80.564 Q 146.208 80.751 146.158 81 A 2.061 2.061 0 0 1 146.158 81.001 Q 145.658 84.501 144.858 88.651 A 49.674 49.674 0 0 1 143.386 94.449 A 43.204 43.204 0 0 1 142.708 96.401 Q 141.358 100.001 139.458 102.401 A 7.082 7.082 0 0 1 137.989 103.816 A 5.319 5.319 0 0 1 134.858 104.801 A 19.93 19.93 0 0 1 132.817 104.702 Q 131.227 104.538 130.008 104.101 A 8.904 8.904 0 0 1 128.295 103.282 A 6.953 6.953 0 0 1 126.858 102.101 A 7.848 7.848 0 0 1 125.179 99.224 A 9.1 9.1 0 0 1 125.108 99.001 A 18.701 18.701 0 0 1 124.517 96.384 A 22.28 22.28 0 0 1 124.358 95.101 Z M 99.073 80.551 A 1.437 1.437 0 0 0 98.958 80.901 Q 98.558 83.901 97.908 87.251 A 65.894 65.894 0 0 1 97.385 89.7 A 55.306 55.306 0 0 1 96.358 93.501 Q 95.458 96.401 94.208 98.301 Q 92.958 100.201 91.458 100.201 A 1.582 1.582 0 0 1 91.436 100.201 Q 90.653 100.19 90.308 99.401 Q 90.078 98.876 89.935 98.135 A 11.047 11.047 0 0 1 89.808 97.301 Q 89.658 96.001 89.658 94.401 L 89.658 91.201 L 89.658 85.651 Q 89.658 83.101 89.708 80.651 A 227.804 227.804 0 0 0 89.714 80.344 A 249.041 249.041 0 0 0 89.758 75.601 L 89.758 69.901 A 465.117 465.117 0 0 1 89.762 69.893 Q 90.562 68.093 92.158 64.451 Q 93.058 62.398 94.053 59.965 A 292.158 292.158 0 0 0 95.658 55.951 Q 97.558 51.101 99.458 45.501 Q 101.358 39.901 102.758 34.351 A 100.175 100.175 0 0 0 103.43 31.516 A 86.428 86.428 0 0 0 104.808 23.651 A 42.208 42.208 0 0 0 104.999 21.83 Q 105.332 17.788 104.758 14.551 A 14.545 14.545 0 0 0 103.988 11.761 A 10.378 10.378 0 0 0 101.758 8.251 Q 99.458 5.901 95.058 5.901 Q 88.658 5.901 85.308 9.051 Q 81.958 12.201 80.458 17.251 A 37.923 37.923 0 0 0 79.348 22.238 A 48.512 48.512 0 0 0 78.808 28.501 Q 78.658 34.701 78.658 40.801 Q 78.658 47.001 78.708 53.851 Q 78.758 60.701 78.808 67.751 Q 78.858 74.801 78.908 81.751 Q 78.958 88.701 79.058 95.101 A 15.125 15.125 0 0 0 79.102 96.258 A 12.679 12.679 0 0 0 79.608 99.001 Q 80.158 100.801 81.408 102.101 A 7.282 7.282 0 0 0 82.897 103.282 A 9.367 9.367 0 0 0 84.658 104.101 A 10.217 10.217 0 0 0 85.463 104.345 Q 86.368 104.58 87.43 104.694 A 19.989 19.989 0 0 0 89.558 104.801 A 5.129 5.129 0 0 0 92.669 103.767 A 7.319 7.319 0 0 0 94.058 102.401 Q 95.958 100.001 97.308 96.401 A 46.439 46.439 0 0 0 98.028 94.332 A 53.617 53.617 0 0 0 99.508 88.651 Q 100.358 84.501 100.858 81.001 A 2.061 2.061 0 0 0 100.858 81 Q 100.908 80.751 100.871 80.564 A 0.596 0.596 0 0 0 100.708 80.251 Q 100.458 80.001 100.108 79.951 A 0.824 0.824 0 0 0 99.991 79.942 Q 99.7 79.942 99.408 80.151 A 1.047 1.047 0 0 0 99.073 80.551 Z M 198.573 80.551 A 1.437 1.437 0 0 0 198.458 80.901 Q 198.058 83.901 197.408 87.251 A 65.894 65.894 0 0 1 196.885 89.7 A 55.306 55.306 0 0 1 195.858 93.501 Q 194.958 96.401 193.708 98.301 Q 192.458 100.201 190.958 100.201 A 1.582 1.582 0 0 1 190.936 100.201 Q 190.153 100.19 189.808 99.401 Q 189.578 98.876 189.435 98.135 A 11.047 11.047 0 0 1 189.308 97.301 Q 189.158 96.001 189.158 94.401 L 189.158 91.201 L 189.158 85.651 Q 189.158 83.101 189.208 80.651 A 227.804 227.804 0 0 0 189.214 80.344 A 249.041 249.041 0 0 0 189.258 75.601 L 189.258 69.901 A 465.117 465.117 0 0 1 189.262 69.893 Q 190.062 68.093 191.658 64.451 Q 192.558 62.398 193.553 59.965 A 292.158 292.158 0 0 0 195.158 55.951 Q 197.058 51.101 198.958 45.501 Q 200.858 39.901 202.258 34.351 A 100.175 100.175 0 0 0 202.93 31.516 A 86.428 86.428 0 0 0 204.308 23.651 A 42.208 42.208 0 0 0 204.499 21.83 Q 204.832 17.788 204.258 14.551 A 14.545 14.545 0 0 0 203.488 11.761 A 10.378 10.378 0 0 0 201.258 8.251 Q 198.958 5.901 194.558 5.901 Q 188.158 5.901 184.808 9.051 Q 181.458 12.201 179.958 17.251 A 37.923 37.923 0 0 0 178.848 22.238 A 48.512 48.512 0 0 0 178.308 28.501 Q 178.158 34.701 178.158 40.801 Q 178.158 47.001 178.208 53.851 Q 178.258 60.701 178.308 67.751 Q 178.358 74.801 178.408 81.751 Q 178.458 88.701 178.558 95.101 A 15.125 15.125 0 0 0 178.602 96.258 A 12.679 12.679 0 0 0 179.108 99.001 Q 179.658 100.801 180.908 102.101 A 7.282 7.282 0 0 0 182.397 103.282 A 9.367 9.367 0 0 0 184.158 104.101 A 10.217 10.217 0 0 0 184.963 104.345 Q 185.868 104.58 186.93 104.694 A 19.989 19.989 0 0 0 189.058 104.801 A 5.129 5.129 0 0 0 192.169 103.767 A 7.319 7.319 0 0 0 193.558 102.401 Q 195.458 100.001 196.808 96.401 A 46.439 46.439 0 0 0 197.528 94.332 A 53.617 53.617 0 0 0 199.008 88.651 Q 199.858 84.501 200.358 81.001 A 2.061 2.061 0 0 0 200.358 81 Q 200.408 80.751 200.371 80.564 A 0.596 0.596 0 0 0 200.208 80.251 Q 199.958 80.001 199.608 79.951 A 0.824 0.824 0 0 0 199.491 79.942 Q 199.2 79.942 198.908 80.151 A 1.047 1.047 0 0 0 198.573 80.551 Z M 243.358 48.101 L 254.358 48.101 A 27.383 27.383 0 0 0 253.269 49.369 Q 252.677 50.1 252.058 50.951 Q 250.858 52.601 249.858 54.501 Q 248.858 56.401 248.208 58.351 A 14.076 14.076 0 0 0 247.765 59.983 Q 247.597 60.807 247.565 61.558 A 8.16 8.16 0 0 0 247.558 61.901 Q 247.558 65.301 249.708 67.801 A 41.009 41.009 0 0 0 252.831 71.039 A 49.337 49.337 0 0 0 254.708 72.701 Q 257.558 75.101 260.258 77.951 A 16.698 16.698 0 0 1 264.002 84.305 A 19.447 19.447 0 0 1 264.158 84.801 A 16.422 16.422 0 0 1 264.743 87.407 Q 264.869 88.334 264.869 89.225 A 12.355 12.355 0 0 1 264.858 89.751 A 13.668 13.668 0 0 1 264.371 92.882 A 12.119 12.119 0 0 1 263.958 94.101 A 11.69 11.69 0 0 0 266.426 93.849 A 10.077 10.077 0 0 0 267.658 93.501 Q 269.358 92.901 270.708 91.351 A 9.738 9.738 0 0 0 271.776 89.838 Q 272.235 89.048 272.633 88.084 A 19.626 19.626 0 0 0 273.008 87.101 A 25.348 25.348 0 0 0 273.671 84.865 Q 273.959 83.718 274.204 82.386 A 55.912 55.912 0 0 0 274.558 80.201 Q 274.653 79.539 275.462 79.592 A 2.141 2.141 0 0 1 275.558 79.601 A 1.724 1.724 0 0 1 275.864 79.66 Q 276.439 79.834 276.358 80.401 A 49.156 49.156 0 0 1 275.875 83.551 Q 275.585 85.081 275.219 86.373 A 21.266 21.266 0 0 1 274.558 88.351 A 18.99 18.99 0 0 1 273.544 90.535 Q 272.694 92.084 271.658 93.151 A 8.751 8.751 0 0 1 269.603 94.74 A 7.63 7.63 0 0 1 267.808 95.451 A 15.078 15.078 0 0 1 264.938 95.887 Q 264.072 95.937 263.158 95.901 Q 261.958 98.101 260.108 99.801 Q 258.258 101.501 255.908 102.701 Q 253.558 103.901 250.858 104.501 Q 248.158 105.101 245.358 105.101 A 20.509 20.509 0 0 1 242.728 104.943 Q 241.41 104.772 240.317 104.417 A 9.214 9.214 0 0 1 238.658 103.701 A 11.092 11.092 0 0 1 236.996 102.575 Q 236.106 101.837 235.532 100.984 A 6.231 6.231 0 0 1 235.158 100.351 Q 234.177 98.439 234.591 96.286 A 7.313 7.313 0 0 1 234.608 96.201 Q 235.058 94.001 236.758 92.401 A 8.409 8.409 0 0 1 238.902 90.955 Q 239.861 90.495 241.022 90.186 A 14.965 14.965 0 0 1 241.358 90.101 A 10.454 10.454 0 0 1 243.245 89.831 Q 245.433 89.711 248.086 90.383 A 23.073 23.073 0 0 1 248.158 90.401 Q 250.058 90.901 251.758 91.401 A 205.495 205.495 0 0 1 254.958 92.37 A 189.029 189.029 0 0 1 255.058 92.401 A 8.655 8.655 0 0 0 255.111 91.444 A 8.604 8.604 0 0 0 254.708 88.851 Q 254.158 87.101 252.758 85.601 Q 250.358 83.001 247.758 80.651 Q 245.158 78.301 242.958 75.951 A 43.356 43.356 0 0 1 239.713 72.066 A 38.765 38.765 0 0 1 239.058 71.151 Q 237.358 68.701 236.758 65.801 Q 235.958 70.001 235.458 74.301 A 256.175 256.175 0 0 1 234.507 81.596 A 231.183 231.183 0 0 1 234.358 82.601 A 0.635 0.635 0 0 1 234.223 82.835 Q 234.126 82.94 233.978 82.994 A 0.775 0.775 0 0 1 233.958 83.001 A 1.326 1.326 0 0 1 233.536 83.067 Q 233.425 83.067 233.308 83.051 A 1.312 1.312 0 0 1 232.946 82.947 A 1.135 1.135 0 0 1 232.708 82.801 A 0.703 0.703 0 0 1 232.546 82.622 A 0.599 0.599 0 0 1 232.458 82.301 Q 233.258 77.001 233.958 71.401 Q 234.658 65.801 236.058 60.501 Q 236.958 57.201 238.658 53.651 A 14.373 14.373 0 0 1 241.134 49.983 A 12.74 12.74 0 0 1 243.358 48.101 Z M 285.158 48.101 L 296.158 48.101 A 27.383 27.383 0 0 0 295.069 49.369 Q 294.477 50.1 293.858 50.951 Q 292.658 52.601 291.658 54.501 Q 290.658 56.401 290.008 58.351 A 14.076 14.076 0 0 0 289.565 59.983 Q 289.397 60.807 289.365 61.558 A 8.16 8.16 0 0 0 289.358 61.901 Q 289.358 65.301 291.508 67.801 A 41.009 41.009 0 0 0 294.631 71.039 A 49.337 49.337 0 0 0 296.508 72.701 Q 299.358 75.101 302.058 77.951 A 16.698 16.698 0 0 1 305.802 84.305 A 19.447 19.447 0 0 1 305.958 84.801 A 16.422 16.422 0 0 1 306.543 87.407 Q 306.669 88.334 306.669 89.225 A 12.355 12.355 0 0 1 306.658 89.751 A 13.668 13.668 0 0 1 306.171 92.882 A 12.119 12.119 0 0 1 305.758 94.101 A 11.69 11.69 0 0 0 308.226 93.849 A 10.077 10.077 0 0 0 309.458 93.501 Q 311.158 92.901 312.508 91.351 A 9.738 9.738 0 0 0 313.576 89.838 Q 314.035 89.048 314.433 88.084 A 19.626 19.626 0 0 0 314.808 87.101 A 25.348 25.348 0 0 0 315.471 84.865 Q 315.759 83.718 316.004 82.386 A 55.912 55.912 0 0 0 316.358 80.201 Q 316.453 79.539 317.262 79.592 A 2.141 2.141 0 0 1 317.358 79.601 A 1.724 1.724 0 0 1 317.664 79.66 Q 318.239 79.834 318.158 80.401 A 49.156 49.156 0 0 1 317.675 83.551 Q 317.385 85.081 317.019 86.373 A 21.266 21.266 0 0 1 316.358 88.351 A 18.99 18.99 0 0 1 315.344 90.535 Q 314.494 92.084 313.458 93.151 A 8.751 8.751 0 0 1 311.403 94.74 A 7.63 7.63 0 0 1 309.608 95.451 A 15.078 15.078 0 0 1 306.738 95.887 Q 305.872 95.937 304.958 95.901 Q 303.758 98.101 301.908 99.801 Q 300.058 101.501 297.708 102.701 Q 295.358 103.901 292.658 104.501 Q 289.958 105.101 287.158 105.101 A 20.509 20.509 0 0 1 284.528 104.943 Q 283.21 104.772 282.117 104.417 A 9.214 9.214 0 0 1 280.458 103.701 A 11.092 11.092 0 0 1 278.796 102.575 Q 277.906 101.837 277.332 100.984 A 6.231 6.231 0 0 1 276.958 100.351 Q 275.977 98.439 276.391 96.286 A 7.313 7.313 0 0 1 276.408 96.201 Q 276.858 94.001 278.558 92.401 A 8.409 8.409 0 0 1 280.702 90.955 Q 281.661 90.495 282.822 90.186 A 14.965 14.965 0 0 1 283.158 90.101 A 10.454 10.454 0 0 1 285.045 89.831 Q 287.233 89.711 289.886 90.383 A 23.073 23.073 0 0 1 289.958 90.401 Q 291.858 90.901 293.558 91.401 A 205.495 205.495 0 0 1 296.758 92.37 A 189.029 189.029 0 0 1 296.858 92.401 A 8.655 8.655 0 0 0 296.911 91.444 A 8.604 8.604 0 0 0 296.508 88.851 Q 295.958 87.101 294.558 85.601 Q 292.158 83.001 289.558 80.651 Q 286.958 78.301 284.758 75.951 A 43.356 43.356 0 0 1 281.513 72.066 A 38.765 38.765 0 0 1 280.858 71.151 Q 279.158 68.701 278.558 65.801 Q 277.758 70.001 277.258 74.301 A 256.175 256.175 0 0 1 276.307 81.596 A 231.183 231.183 0 0 1 276.158 82.601 A 0.635 0.635 0 0 1 276.023 82.835 Q 275.926 82.94 275.778 82.994 A 0.775 0.775 0 0 1 275.758 83.001 A 1.326 1.326 0 0 1 275.336 83.067 Q 275.225 83.067 275.108 83.051 A 1.312 1.312 0 0 1 274.746 82.947 A 1.135 1.135 0 0 1 274.508 82.801 A 0.703 0.703 0 0 1 274.346 82.622 A 0.599 0.599 0 0 1 274.258 82.301 Q 275.058 77.001 275.758 71.401 Q 276.458 65.801 277.858 60.501 Q 278.758 57.201 280.458 53.651 A 14.373 14.373 0 0 1 282.934 49.983 A 12.74 12.74 0 0 1 285.158 48.101 Z M 178.554 80.477 A 1.72 1.72 0 0 0 178.458 80.801 A 32.724 32.724 0 0 1 177.871 83.888 A 45.047 45.047 0 0 1 176.958 87.151 Q 175.858 90.601 174.008 93.551 A 19.327 19.327 0 0 1 173.714 94.005 A 16.835 16.835 0 0 1 169.508 98.401 Q 166.858 100.301 163.258 100.201 Q 161.058 100.101 159.508 98.851 Q 157.958 97.601 157.008 95.351 A 15.667 15.667 0 0 1 156.813 94.867 Q 156.011 92.774 155.608 90.001 Q 155.158 86.901 155.058 83.101 A 28.013 28.013 0 0 0 156.135 83.122 Q 158.313 83.122 160.181 82.765 A 14.783 14.783 0 0 0 163.808 81.601 A 17.333 17.333 0 0 0 166.292 80.16 A 12.926 12.926 0 0 0 169.308 77.251 Q 171.258 74.601 171.558 71.401 A 13.067 13.067 0 0 0 171.616 70.181 A 11.003 11.003 0 0 0 170.608 65.501 A 10.484 10.484 0 0 0 169.266 63.337 A 12.022 12.022 0 0 0 166.658 60.951 A 9.173 9.173 0 0 0 165.892 60.48 Q 163.384 59.101 159.758 59.101 A 20.326 20.326 0 0 0 159.166 59.109 Q 157.378 59.161 155.848 59.532 A 11.086 11.086 0 0 0 152.058 61.201 A 14.489 14.489 0 0 0 150.977 62.036 A 15.036 15.036 0 0 0 147.308 66.751 A 23.211 23.211 0 0 0 145.859 70.351 A 30.223 30.223 0 0 0 144.858 74.751 Q 144.158 79.301 144.158 84.101 A 50.191 50.191 0 0 0 144.263 87.425 Q 144.541 91.608 145.558 94.551 A 23.906 23.906 0 0 0 145.831 95.3 Q 147.18 98.818 149.308 100.901 A 14.553 14.553 0 0 0 149.679 101.251 A 12.304 12.304 0 0 0 154.608 104.051 Q 157.558 104.901 160.658 104.901 A 17.808 17.808 0 0 0 162.998 104.751 A 13.804 13.804 0 0 0 168.808 102.651 Q 172.258 100.401 174.658 96.901 A 28.832 28.832 0 0 0 174.696 96.846 A 30.498 30.498 0 0 0 178.458 89.151 A 50.086 50.086 0 0 0 179.314 86.27 A 41.143 41.143 0 0 0 180.358 81.001 A 1.564 1.564 0 0 0 180.377 80.887 Q 180.429 80.466 180.208 80.201 Q 179.958 79.901 179.558 79.851 A 1.052 1.052 0 0 0 179.428 79.842 A 0.865 0.865 0 0 0 178.858 80.051 A 0.966 0.966 0 0 0 178.755 80.15 Q 178.633 80.287 178.554 80.477 Z M 232.754 80.477 A 1.72 1.72 0 0 0 232.658 80.801 A 32.724 32.724 0 0 1 232.071 83.888 A 45.047 45.047 0 0 1 231.158 87.151 Q 230.058 90.601 228.208 93.551 A 19.327 19.327 0 0 1 227.914 94.005 A 16.835 16.835 0 0 1 223.708 98.401 Q 221.058 100.301 217.458 100.201 Q 215.258 100.101 213.708 98.851 Q 212.158 97.601 211.208 95.351 A 15.667 15.667 0 0 1 211.013 94.867 Q 210.211 92.774 209.808 90.001 Q 209.358 86.901 209.258 83.101 A 28.013 28.013 0 0 0 210.335 83.122 Q 212.513 83.122 214.381 82.765 A 14.783 14.783 0 0 0 218.008 81.601 A 17.333 17.333 0 0 0 220.492 80.16 A 12.926 12.926 0 0 0 223.508 77.251 Q 225.458 74.601 225.758 71.401 A 13.067 13.067 0 0 0 225.816 70.181 A 11.003 11.003 0 0 0 224.808 65.501 A 10.484 10.484 0 0 0 223.466 63.337 A 12.022 12.022 0 0 0 220.858 60.951 A 9.173 9.173 0 0 0 220.092 60.48 Q 217.584 59.101 213.958 59.101 A 20.326 20.326 0 0 0 213.366 59.109 Q 211.578 59.161 210.048 59.532 A 11.086 11.086 0 0 0 206.258 61.201 A 14.489 14.489 0 0 0 205.177 62.036 A 15.036 15.036 0 0 0 201.508 66.751 A 23.211 23.211 0 0 0 200.059 70.351 A 30.223 30.223 0 0 0 199.058 74.751 Q 198.358 79.301 198.358 84.101 A 50.191 50.191 0 0 0 198.463 87.425 Q 198.741 91.608 199.758 94.551 A 23.906 23.906 0 0 0 200.031 95.3 Q 201.38 98.818 203.508 100.901 A 14.553 14.553 0 0 0 203.879 101.251 A 12.304 12.304 0 0 0 208.808 104.051 Q 211.758 104.901 214.858 104.901 A 17.808 17.808 0 0 0 217.198 104.751 A 13.804 13.804 0 0 0 223.008 102.651 Q 226.458 100.401 228.858 96.901 A 28.832 28.832 0 0 0 228.896 96.846 A 30.498 30.498 0 0 0 232.658 89.151 A 50.086 50.086 0 0 0 233.514 86.27 A 41.143 41.143 0 0 0 234.558 81.001 A 1.564 1.564 0 0 0 234.577 80.887 Q 234.629 80.466 234.408 80.201 Q 234.158 79.901 233.758 79.851 A 1.052 1.052 0 0 0 233.628 79.842 A 0.865 0.865 0 0 0 233.058 80.051 A 0.966 0.966 0 0 0 232.955 80.15 Q 232.833 80.287 232.754 80.477 Z M 89.658 40.601 L 89.658 65.601 A 258.273 258.273 0 0 0 93.973 55.492 Q 95.918 50.634 97.362 46.334 A 119.493 119.493 0 0 0 99.008 41.051 Q 101.958 30.701 102.508 24.001 A 45.997 45.997 0 0 0 102.619 22.265 Q 102.789 18.398 102.172 15.857 A 9.877 9.877 0 0 0 101.558 14.051 Q 100.735 12.267 99.61 11.462 A 3.446 3.446 0 0 0 97.558 10.801 A 4.561 4.561 0 0 0 94.145 12.279 A 6.151 6.151 0 0 0 93.858 12.601 Q 92.402 14.348 91.558 17.038 A 18.553 18.553 0 0 0 91.508 17.201 A 31.91 31.91 0 0 0 90.694 20.556 A 41.303 41.303 0 0 0 90.258 23.451 Q 89.858 26.901 89.708 30.251 Q 89.558 33.601 89.608 36.351 Q 89.646 38.456 89.655 39.829 A 118.783 118.783 0 0 1 89.658 40.601 Z M 189.158 40.601 L 189.158 65.601 A 258.273 258.273 0 0 0 193.473 55.492 Q 195.418 50.634 196.862 46.334 A 119.493 119.493 0 0 0 198.508 41.051 Q 201.458 30.701 202.008 24.001 A 45.997 45.997 0 0 0 202.119 22.265 Q 202.289 18.398 201.672 15.857 A 9.877 9.877 0 0 0 201.058 14.051 Q 200.235 12.267 199.11 11.462 A 3.446 3.446 0 0 0 197.058 10.801 A 4.561 4.561 0 0 0 193.645 12.279 A 6.151 6.151 0 0 0 193.358 12.601 Q 191.902 14.348 191.058 17.038 A 18.553 18.553 0 0 0 191.008 17.201 A 31.91 31.91 0 0 0 190.194 20.556 A 41.303 41.303 0 0 0 189.758 23.451 Q 189.358 26.901 189.208 30.251 Q 189.058 33.601 189.108 36.351 Q 189.146 38.456 189.155 39.829 A 118.783 118.783 0 0 1 189.158 40.601 Z M 158.613 65.277 A 6.088 6.088 0 0 0 158.558 65.351 A 13.306 13.306 0 0 0 156.944 68.306 A 16.874 16.874 0 0 0 156.308 70.251 Q 155.558 73.101 155.308 76.151 Q 155.136 78.248 155.082 79.896 A 43.278 43.278 0 0 0 155.058 81.301 Q 159.054 81.478 161.907 80.513 A 11.978 11.978 0 0 0 162.608 80.251 A 14.783 14.783 0 0 0 164.855 79.111 Q 166.098 78.333 166.99 77.365 A 8.791 8.791 0 0 0 167.308 77.001 A 9.51 9.51 0 0 0 168.986 74.062 A 8.898 8.898 0 0 0 169.358 72.601 Q 169.504 71.728 169.504 70.902 A 8.454 8.454 0 0 0 169.058 68.151 Q 168.358 66.101 166.708 64.701 A 5.863 5.863 0 0 0 163.39 63.335 A 7.669 7.669 0 0 0 162.658 63.301 Q 160.105 63.301 158.613 65.277 Z M 212.813 65.277 A 6.088 6.088 0 0 0 212.758 65.351 A 13.306 13.306 0 0 0 211.144 68.306 A 16.874 16.874 0 0 0 210.508 70.251 Q 209.758 73.101 209.508 76.151 Q 209.336 78.248 209.282 79.896 A 43.278 43.278 0 0 0 209.258 81.301 Q 213.254 81.478 216.107 80.513 A 11.978 11.978 0 0 0 216.808 80.251 A 14.783 14.783 0 0 0 219.055 79.111 Q 220.298 78.333 221.19 77.365 A 8.791 8.791 0 0 0 221.508 77.001 A 9.51 9.51 0 0 0 223.186 74.062 A 8.898 8.898 0 0 0 223.558 72.601 Q 223.704 71.728 223.704 70.902 A 8.454 8.454 0 0 0 223.258 68.151 Q 222.558 66.101 220.908 64.701 A 5.863 5.863 0 0 0 217.59 63.335 A 7.669 7.669 0 0 0 216.858 63.301 Q 214.305 63.301 212.813 65.277 Z M 30.958 102.901 A 16.705 16.705 0 0 0 37.469 101.552 A 19.56 19.56 0 0 0 38.258 101.201 A 74.785 74.785 0 0 0 33.863 98.109 A 58.018 58.018 0 0 0 30.358 96.001 A 17.84 17.84 0 0 0 26.818 94.493 A 13.841 13.841 0 0 0 22.858 93.901 A 12.667 12.667 0 0 0 21.594 93.959 Q 19.346 94.185 18.908 95.301 Q 18.457 96.45 19.319 97.801 A 6.162 6.162 0 0 0 19.758 98.401 Q 20.785 99.648 22.672 100.733 A 19.653 19.653 0 0 0 24.158 101.501 A 14.881 14.881 0 0 0 28.661 102.764 A 18.772 18.772 0 0 0 30.958 102.901 Z M 245.358 100.301 A 12.232 12.232 0 0 0 248.085 100.012 A 8.819 8.819 0 0 0 251.358 98.551 Q 253.758 96.801 254.658 94.201 Q 252.958 93.701 251.258 93.151 Q 249.558 92.601 247.758 92.101 Q 243.258 91.001 241.008 92.151 A 6.707 6.707 0 0 0 239.901 92.849 Q 239.313 93.313 238.968 93.856 A 3.087 3.087 0 0 0 238.508 95.101 Q 238.258 96.901 240.008 98.601 Q 241.758 100.301 245.358 100.301 Z M 287.158 100.301 A 12.232 12.232 0 0 0 289.885 100.012 A 8.819 8.819 0 0 0 293.158 98.551 Q 295.558 96.801 296.458 94.201 Q 294.758 93.701 293.058 93.151 Q 291.358 92.601 289.558 92.101 Q 285.058 91.001 282.808 92.151 A 6.707 6.707 0 0 0 281.701 92.849 Q 281.113 93.313 280.768 93.856 A 3.087 3.087 0 0 0 280.308 95.101 Q 280.058 96.901 281.808 98.601 Q 283.558 100.301 287.158 100.301 Z" vector-effect="non-scaling-stroke"/></g></svg>